<svg id="Layer_1" data-name="Layer 1" xmlns="http://www.w3.org/2000/svg" viewBox="0 0 375 667"><defs><style>.cls-1{fill:#fff;}</style></defs><title>startslutt</title><path class="cls-1" d="M56.56,98V64.44H67.07a14.58,14.58,0,0,1,5.42,1,14.25,14.25,0,0,1,4.61,3,13.76,13.76,0,0,1,3.29,5.26,21.44,21.44,0,0,1,1.22,7.51,23.31,23.31,0,0,1-1.25,8A12.31,12.31,0,0,1,77,94.46a14.3,14.3,0,0,1-4.68,2.71,16.85,16.85,0,0,1-5.5.86Zm4-3.65h5.9q10.94,0,10.94-13.2,0-6.34-2.86-9.72a9.67,9.67,0,0,0-7.8-3.38H60.54Z"/><path class="cls-1" d="M98,98.76a10.78,10.78,0,0,1-8.3-3.55q-3.27-3.55-3.26-9.89t3.36-9.84A10.8,10.8,0,0,1,98,71.88a10.53,10.53,0,0,1,8.09,3.6q3.29,3.6,3.29,9.84t-3.22,9.89A10.53,10.53,0,0,1,98,98.76Zm0-3.55a6.63,6.63,0,0,0,5.35-2.62,11.19,11.19,0,0,0,2.14-7.27A11.28,11.28,0,0,0,103.36,78,6.62,6.62,0,0,0,98,75.43,6.89,6.89,0,0,0,92.46,78q-2.16,2.57-2.16,7.32t2.16,7.32A6.89,6.89,0,0,0,98,95.21Z"/><path class="cls-1" d="M115.84,98V72.6h3.84V75h.1a7.63,7.63,0,0,1,3-2.28,9.93,9.93,0,0,1,4.13-.89,8.94,8.94,0,0,1,6.65,2.54,9.39,9.39,0,0,1,2.52,6.91V98h-3.89V82.58q0-7.1-5.86-7.1a6.72,6.72,0,0,0-4.78,1.68,6.06,6.06,0,0,0-1.8,4.66V98Z"/><path class="cls-1" d="M143.54,75V72.89a2.63,2.63,0,0,0,2.3-2.93h-2.3V64.3h5.66v4.94Q149.2,74.66,143.54,75Z"/><path class="cls-1" d="M158.75,90.65V76.1H155.2V72.6h3.65V66.36h3.74V72.6h6.29v3.5h-6.24V90.17a5.89,5.89,0,0,0,.62,3.17,2.84,2.84,0,0,0,2.5.91h1.92V98h-2.11q-3.6,0-5.21-1.85T158.75,90.65Z"/><path class="cls-1" d="M188,98V76.1h-3.55V72.6h3.6V68.71q0-3.22,1.44-4.46A6.12,6.12,0,0,1,193.65,63h4.08v3.5h-3.36a2.62,2.62,0,0,0-2,.58,3.91,3.91,0,0,0-.5,2.4V72.6h6.29v3.5h-6.24V98Z"/><path class="cls-1" d="M220.58,90.22l3.17,2.06a12.64,12.64,0,0,1-4.1,4.63,11.22,11.22,0,0,1-6.55,1.85,10.93,10.93,0,0,1-8.5-3.67q-3.31-3.67-3.31-9.77t3.24-9.77a10.65,10.65,0,0,1,8.38-3.67,10.48,10.48,0,0,1,8.26,3.6q3.17,3.6,3.17,9.84v1.15h-19.1a10,10,0,0,0,2,6.19A6.85,6.85,0,0,0,213,95.21a8.58,8.58,0,0,0,2.69-.41A9.48,9.48,0,0,0,217.6,94,5.68,5.68,0,0,0,219,92.64a14.43,14.43,0,0,0,.91-1.22Q220.1,91.13,220.58,90.22Zm-15.26-6.86h15.12a9.3,9.3,0,0,0-1.92-5.57q-1.83-2.35-5.62-2.35A6.62,6.62,0,0,0,207.28,78,9,9,0,0,0,205.31,83.35Z"/><path class="cls-1" d="M245.58,98V95.26h-.1a7,7,0,0,1-2.74,2.38,10.22,10.22,0,0,1-5,1.13q-4.22,0-6.41-2.06a6.83,6.83,0,0,1-2.18-5.18,6.44,6.44,0,0,1,1.94-5q1.94-1.8,6.6-3,1.73-.43,2.57-.67t1.94-.65a6,6,0,0,0,1.58-.79,3.8,3.8,0,0,0,.84-1,2.39,2.39,0,0,0,.36-1.3,3.36,3.36,0,0,0-1.32-2.71,6.25,6.25,0,0,0-4-1.08q-5.09,0-6.19,5l-3.55-1A9,9,0,0,1,233,74a9.76,9.76,0,0,1,6.48-2.09,10.43,10.43,0,0,1,7,2.18Q249,76.25,249,80.9V98Zm-7-11.47a11.77,11.77,0,0,0-4.44,2A3.51,3.51,0,0,0,233,91.27q0,4,5,4a8.1,8.1,0,0,0,5.33-1.56,4.79,4.79,0,0,0,1.87-3.82V83.54h-.1Q244.43,84.94,238.58,86.57Z"/><path class="cls-1" d="M256.72,98V72.6h3.74v2.74h.1A5.35,5.35,0,0,1,262.81,73a6.23,6.23,0,0,1,3-.82,5.32,5.32,0,0,1,1.13.12q.55.12.84.22l.24.14-.72,3.89a4.35,4.35,0,0,0-2-.38,4,4,0,0,0-3.55,1.61,9.32,9.32,0,0,0-1.1,5.16V98Z"/><path class="cls-1" d="M57,148.25V133.7H53.44v-3.5h3.65V124h3.74v6.24h6.29v3.5H60.88v14.06a5.89,5.89,0,0,0,.62,3.17,2.84,2.84,0,0,0,2.5.91h1.92v3.79H63.81q-3.6,0-5.21-1.85T57,148.25Z"/><path class="cls-1" d="M73.36,155.64v-35H77.3v12.14h.1a7.54,7.54,0,0,1,3.1-2.35,10.53,10.53,0,0,1,4.34-.91,9,9,0,0,1,6.6,2.47Q94,134.42,94,139v16.61H90V140.09q0-7-5.9-7a6.76,6.76,0,0,0-5,1.82,6.38,6.38,0,0,0-1.85,4.75v16Z"/><path class="cls-1" d="M119.49,147.82l3.17,2.06a12.64,12.64,0,0,1-4.1,4.63,11.22,11.22,0,0,1-6.55,1.85,10.93,10.93,0,0,1-8.5-3.67q-3.31-3.67-3.31-9.77t3.24-9.77a10.65,10.65,0,0,1,8.38-3.67,10.48,10.48,0,0,1,8.26,3.6q3.17,3.6,3.17,9.84v1.15h-19.1a10,10,0,0,0,2,6.19,6.85,6.85,0,0,0,5.74,2.54,8.59,8.59,0,0,0,2.69-.41,9.5,9.5,0,0,0,1.92-.82,5.7,5.7,0,0,0,1.42-1.34,14.5,14.5,0,0,0,.91-1.22Q119,148.73,119.49,147.82ZM104.22,141h15.12a9.3,9.3,0,0,0-1.92-5.57Q115.6,133,111.81,133a6.62,6.62,0,0,0-5.62,2.52A9,9,0,0,0,104.22,141Z"/><path class="cls-1" d="M142,160.25l3.31-1.68a9.17,9.17,0,0,0,2.38,3.72,7.29,7.29,0,0,0,9-.43,7.07,7.07,0,0,0,1.68-5v-3.41h-.1a8.77,8.77,0,0,1-7.06,2.93,10.08,10.08,0,0,1-8.11-3.65q-3.07-3.65-3.07-9.79t3.19-9.77a10.1,10.1,0,0,1,7.94-3.67,8.65,8.65,0,0,1,7.15,3.17h.1V130.2h3.84V156q0,5.42-2.71,8.28a9.87,9.87,0,0,1-7.51,2.86,10.58,10.58,0,0,1-6.46-1.9A10.1,10.1,0,0,1,142,160.25Zm16.42-13v-8.06a6.11,6.11,0,0,0-1.8-4.27,6.24,6.24,0,0,0-4.78-1.92,6.91,6.91,0,0,0-5.78,2.62,11.56,11.56,0,0,0-2,7.27q0,4.71,2,7.3a6.92,6.92,0,0,0,5.81,2.59,6.84,6.84,0,0,0,4.7-1.66A5,5,0,0,0,158.37,147.29Z"/><path class="cls-1" d="M170.17,155.64V130.2h3.74v2.74h.1a5.35,5.35,0,0,1,2.26-2.35,6.23,6.23,0,0,1,3-.82,5.32,5.32,0,0,1,1.13.12c.37.08.65.15.84.22l.24.14-.72,3.89a4.34,4.34,0,0,0-2-.38,4,4,0,0,0-3.55,1.61,9.32,9.32,0,0,0-1.1,5.16v15.12Z"/><path class="cls-1" d="M187,125.06V120.6h4.51v4.46Zm.29,30.58V130.2h3.94v25.44Z"/><path class="cls-1" d="M217.31,147.82l3.17,2.06a12.64,12.64,0,0,1-4.1,4.63,11.22,11.22,0,0,1-6.55,1.85,10.93,10.93,0,0,1-8.5-3.67Q198,149,198,142.92t3.24-9.77a10.65,10.65,0,0,1,8.38-3.67,10.48,10.48,0,0,1,8.26,3.6q3.17,3.6,3.17,9.84v1.15h-19.1a10,10,0,0,0,2,6.19,6.85,6.85,0,0,0,5.74,2.54,8.58,8.58,0,0,0,2.69-.41,9.48,9.48,0,0,0,1.92-.82,5.68,5.68,0,0,0,1.42-1.34,14.43,14.43,0,0,0,.91-1.22Q216.83,148.73,217.31,147.82ZM202,141h15.12a9.3,9.3,0,0,0-1.92-5.57q-1.83-2.35-5.62-2.35a6.62,6.62,0,0,0-5.62,2.52A9,9,0,0,0,202,141Z"/><path class="cls-1" d="M234,155.64,223.69,130.2h4l7.78,19.92h.1l7.78-19.92h4l-10.27,25.44Z"/><path class="cls-1" d="M269.34,147.82l3.17,2.06a12.64,12.64,0,0,1-4.1,4.63,11.22,11.22,0,0,1-6.55,1.85,10.93,10.93,0,0,1-8.5-3.67Q250,149,250,142.92t3.24-9.77a10.65,10.65,0,0,1,8.38-3.67,10.48,10.48,0,0,1,8.26,3.6q3.17,3.6,3.17,9.84v1.15H254a10,10,0,0,0,2,6.19,6.85,6.85,0,0,0,5.74,2.54,8.58,8.58,0,0,0,2.69-.41,9.48,9.48,0,0,0,1.92-.82,5.68,5.68,0,0,0,1.42-1.34,14.43,14.43,0,0,0,.91-1.22Q268.86,148.73,269.34,147.82ZM254.08,141H269.2a9.3,9.3,0,0,0-1.92-5.57q-1.83-2.35-5.62-2.35a6.62,6.62,0,0,0-5.62,2.52A9,9,0,0,0,254.08,141Z"/><path class="cls-1" d="M279.57,155.64V130.2h3.74v2.74h.1a5.35,5.35,0,0,1,2.26-2.35,6.23,6.23,0,0,1,3-.82,5.32,5.32,0,0,1,1.13.12q.55.12.84.22l.24.14-.72,3.89a4.35,4.35,0,0,0-2-.38,4,4,0,0,0-3.55,1.61,9.32,9.32,0,0,0-1.1,5.16v15.12Z"/><path class="cls-1" d="M115.85,284V263h8.07a7.43,7.43,0,0,1,5.1,1.69,6.9,6.9,0,0,1,0,9.53A7.35,7.35,0,0,1,124,275.9h-5.64V284Zm2.49-10.38h5.49a5.07,5.07,0,0,0,3.29-1.05,3.73,3.73,0,0,0,1.3-3.09,3.77,3.77,0,0,0-1.32-3.17,5.23,5.23,0,0,0-3.33-1h-5.43Z"/><path class="cls-1" d="M134.09,284V268.1h2.34v1.71h.06a3.34,3.34,0,0,1,1.41-1.47,3.89,3.89,0,0,1,1.89-.51,3.36,3.36,0,0,1,.71.07l.53.14.15.09-.45,2.43a2.72,2.72,0,0,0-1.26-.24,2.5,2.5,0,0,0-2.22,1,5.82,5.82,0,0,0-.69,3.22V284Z"/><path class="cls-1" d="M150.2,284.45a6.74,6.74,0,0,1-5.19-2.22,8.79,8.79,0,0,1-2-6.18,8.66,8.66,0,0,1,2.1-6.15,6.75,6.75,0,0,1,5.13-2.25,6.58,6.58,0,0,1,5.05,2.25,8.78,8.78,0,0,1,2.05,6.15,8.88,8.88,0,0,1-2,6.18A6.58,6.58,0,0,1,150.2,284.45Zm0-2.22a4.15,4.15,0,0,0,3.34-1.63,8.44,8.44,0,0,0,0-9.09,4.13,4.13,0,0,0-3.36-1.63,4.31,4.31,0,0,0-3.45,1.6,8.42,8.42,0,0,0,0,9.15A4.31,4.31,0,0,0,150.2,282.23Z"/><path class="cls-1" d="M161.93,279.38v-9.09h-2.22V268.1H162v-3.9h2.34v3.9h3.93v2.19h-3.9v8.79a3.67,3.67,0,0,0,.39,2,1.78,1.78,0,0,0,1.56.57h1.2V284h-1.32a4.1,4.1,0,0,1-3.25-1.15A5.16,5.16,0,0,1,161.93,279.38Z"/><path class="cls-1" d="M177.74,284.45a6.74,6.74,0,0,1-5.19-2.22,8.79,8.79,0,0,1-2-6.18,8.66,8.66,0,0,1,2.1-6.15,6.75,6.75,0,0,1,5.13-2.25,6.58,6.58,0,0,1,5.05,2.25,8.78,8.78,0,0,1,2.05,6.15,8.88,8.88,0,0,1-2,6.18A6.58,6.58,0,0,1,177.74,284.45Zm0-2.22a4.15,4.15,0,0,0,3.34-1.63,8.44,8.44,0,0,0,0-9.09,4.13,4.13,0,0,0-3.36-1.63,4.31,4.31,0,0,0-3.45,1.6,8.42,8.42,0,0,0,0,9.15A4.31,4.31,0,0,0,177.74,282.23Z"/><path class="cls-1" d="M189.47,279.38v-9.09h-2.22V268.1h2.28v-3.9h2.34v3.9h3.93v2.19h-3.9v8.79a3.67,3.67,0,0,0,.39,2,1.78,1.78,0,0,0,1.56.57H195V284h-1.32a4.1,4.1,0,0,1-3.25-1.15A5.16,5.16,0,0,1,189.47,279.38Z"/><path class="cls-1" d="M200.54,290.75l3.18-8.43-6-14.22h2.58l4.5,11h.06l4-11h2.52l-8.55,22.65Z"/><path class="cls-1" d="M214.61,290.75V268.1h2.34v1.53H217a5.45,5.45,0,0,1,1.8-1.36,6,6,0,0,1,2.76-.62,6.27,6.27,0,0,1,5,2.29,9,9,0,0,1,2,6.1,9.19,9.19,0,0,1-1.92,6.12,6.24,6.24,0,0,1-5,2.28,5.83,5.83,0,0,1-2.7-.63,4.73,4.73,0,0,1-1.74-1.35h-.06v8.28Zm2.46-17v5a3.14,3.14,0,0,0,1.17,2.42,4.23,4.23,0,0,0,2.91,1,4.37,4.37,0,0,0,3.65-1.62,8.72,8.72,0,0,0,0-9.1,4.36,4.36,0,0,0-3.63-1.63,3.86,3.86,0,0,0-3,1.2A3.82,3.82,0,0,0,217.07,273.74Z"/><path class="cls-1" d="M243.56,279.11l2,1.29a7.9,7.9,0,0,1-2.57,2.9,7,7,0,0,1-4.09,1.16,6.83,6.83,0,0,1-5.31-2.3,8.77,8.77,0,0,1-2.07-6.1,8.89,8.89,0,0,1,2-6.1,6.66,6.66,0,0,1,5.23-2.29,6.55,6.55,0,0,1,5.16,2.25,9,9,0,0,1,2,6.15v.72H234a6.22,6.22,0,0,0,1.28,3.87,4.28,4.28,0,0,0,3.58,1.59,5.38,5.38,0,0,0,1.68-.25,6,6,0,0,0,1.2-.51,3.57,3.57,0,0,0,.88-.84,9.18,9.18,0,0,0,.57-.77ZM234,274.82h9.45a5.81,5.81,0,0,0-1.2-3.48,4.81,4.81,0,0,0-7,.1A5.63,5.63,0,0,0,234,274.82Z"/><path class="cls-1" d="M118.49,304.28v1.35q-3.54-.24-3.54-3.63v-3.09h3.54v3.54H117A1.65,1.65,0,0,0,118.49,304.28Z"/><path class="cls-1" d="M125.09,320V299h2.49v9H137v-9h2.46v21H137v-9.75h-9.39V320Z"/><path class="cls-1" d="M151,320.45a6.74,6.74,0,0,1-5.19-2.22,8.79,8.79,0,0,1-2-6.18,8.66,8.66,0,0,1,2.1-6.15,6.75,6.75,0,0,1,5.13-2.25,6.58,6.58,0,0,1,5.05,2.25,8.78,8.78,0,0,1,2.05,6.15,8.88,8.88,0,0,1-2,6.18A6.58,6.58,0,0,1,151,320.45Zm0-2.22a4.15,4.15,0,0,0,3.34-1.64,8.44,8.44,0,0,0,0-9.09,4.13,4.13,0,0,0-3.36-1.63,4.31,4.31,0,0,0-3.45,1.6,8.42,8.42,0,0,0,0,9.15A4.31,4.31,0,0,0,151,318.23Z"/><path class="cls-1" d="M162.17,320V304.1h2.4v1.53h.06a4.77,4.77,0,0,1,1.89-1.42,6.2,6.2,0,0,1,2.58-.55,5.58,5.58,0,0,1,4.15,1.59,5.87,5.87,0,0,1,1.58,4.32V320H172.4v-9.66q0-4.44-3.66-4.44a4.2,4.2,0,0,0-3,1,3.79,3.79,0,0,0-1.12,2.91V320Z"/><path class="cls-1" d="M190.79,315.11l2,1.29a7.9,7.9,0,0,1-2.57,2.89,7,7,0,0,1-4.09,1.16,6.83,6.83,0,0,1-5.31-2.29,8.77,8.77,0,0,1-2.07-6.11,8.89,8.89,0,0,1,2-6.1,6.66,6.66,0,0,1,5.23-2.29,6.55,6.55,0,0,1,5.16,2.25,9,9,0,0,1,2,6.15v.72H181.19a6.22,6.22,0,0,0,1.28,3.87,4.28,4.28,0,0,0,3.58,1.59,5.35,5.35,0,0,0,1.68-.26,5.92,5.92,0,0,0,1.2-.51,3.58,3.58,0,0,0,.88-.84,9.12,9.12,0,0,0,.57-.76Zm-9.54-4.29h9.45a5.81,5.81,0,0,0-1.2-3.48,4.81,4.81,0,0,0-7,.11A5.63,5.63,0,0,0,181.25,310.82Z"/><path class="cls-1" d="M196,314.6l2.31-.45q.45,4.17,4.41,4.17a4.8,4.8,0,0,0,2.83-.69,2.16,2.16,0,0,0,.94-1.83,2,2,0,0,0-.88-1.8,14.67,14.67,0,0,0-3.71-1.38,11.24,11.24,0,0,1-4.14-1.83,3.43,3.43,0,0,1-1.2-2.76A4,4,0,0,1,198,305a5.89,5.89,0,0,1,4.05-1.3,6.37,6.37,0,0,1,4.14,1.24,6,6,0,0,1,2,3.32l-2.13.57a3.89,3.89,0,0,0-4-3,3.81,3.81,0,0,0-2.4.66,1.94,1.94,0,0,0-.84,1.56,1.59,1.59,0,0,0,.81,1.47,20,20,0,0,0,3.72,1.32,10.25,10.25,0,0,1,4.24,2,4.15,4.15,0,0,1,1.19,3,4.29,4.29,0,0,1-1.52,3.27,8,8,0,0,1-9.36-.25A6.68,6.68,0,0,1,196,314.6Z"/><path class="cls-1" d="M213.26,315.38v-9.09H211V304.1h2.28v-3.9h2.34v3.9h3.93v2.19h-3.9v8.79a3.67,3.67,0,0,0,.39,2,1.77,1.77,0,0,0,1.56.57h1.2V320h-1.32a4.1,4.1,0,0,1-3.25-1.16A5.15,5.15,0,0,1,213.26,315.38Z"/><path class="cls-1" d="M231.56,315.38v-9.09h-2.22V304.1h2.28v-3.9H234v3.9h3.93v2.19H234v8.79a3.67,3.67,0,0,0,.39,2,1.77,1.77,0,0,0,1.56.57h1.2V320h-1.32a4.1,4.1,0,0,1-3.25-1.16A5.15,5.15,0,0,1,231.56,315.38Z"/><path class="cls-1" d="M252.2,315.11l2,1.29a7.9,7.9,0,0,1-2.57,2.89,7,7,0,0,1-4.09,1.16,6.83,6.83,0,0,1-5.31-2.29,8.77,8.77,0,0,1-2.07-6.11,8.89,8.89,0,0,1,2-6.1,6.66,6.66,0,0,1,5.23-2.29,6.55,6.55,0,0,1,5.16,2.25,9,9,0,0,1,2,6.15v.72H242.6a6.22,6.22,0,0,0,1.28,3.87,4.28,4.28,0,0,0,3.58,1.59,5.35,5.35,0,0,0,1.68-.26,5.92,5.92,0,0,0,1.2-.51,3.58,3.58,0,0,0,.88-.84,9.12,9.12,0,0,0,.57-.76Zm-9.54-4.29h9.45a5.81,5.81,0,0,0-1.2-3.48,4.81,4.81,0,0,0-7,.11A5.63,5.63,0,0,0,242.66,310.82Z"/><path class="cls-1" d="M256.19,320l5.37-8.16-5-7.74h2.7l3.87,6.12h.06L267,304.1h2.67l-5,7.74L270,320h-2.73l-4.2-6.54h-.06L258.92,320Z"/><path class="cls-1" d="M273.92,315.38v-9.09H271.7V304.1H274v-3.9h2.34v3.9h3.93v2.19h-3.9v8.79a3.67,3.67,0,0,0,.39,2,1.77,1.77,0,0,0,1.56.57h1.2V320h-1.32a4.1,4.1,0,0,1-3.25-1.16A5.15,5.15,0,0,1,273.92,315.38Z"/><path class="cls-1" d="M284.45,305.63v-1.35a1.65,1.65,0,0,0,1.44-1.83h-1.44v-3.54H288V302Q288,305.39,284.45,305.63Z"/><path class="cls-1" d="M72.06,288.61q6.81-1.67,12.15-2.66a48.71,48.71,0,0,1,7.27-1,6.08,6.08,0,0,1,4.22,1.42,4.91,4.91,0,0,1,1.6,3.82,5.11,5.11,0,0,1-1.58,3.93,6,6,0,0,1-4.26,1.47,48,48,0,0,1-7.27-1q-5.25-1-12.19-2.59a2.85,2.85,0,0,1-.13.44,10.11,10.11,0,0,1-.66,1.49q1.14.75,3.29,2.11,15,9.45,15,13.23A5.17,5.17,0,0,1,87.9,313a5.07,5.07,0,0,1-3.71,1.63q-3.82,0-13.36-15l-2-3.21a9.87,9.87,0,0,1-1,.46,7.58,7.58,0,0,1-1,.33q1.67,7,2.64,12.3a49.6,49.6,0,0,1,1,7.25A5.88,5.88,0,0,1,69,320.94a5.53,5.53,0,0,1-7.74,0,6.19,6.19,0,0,1-1.43-4.31,48.2,48.2,0,0,1,1-7.18q.87-5.19,2.58-12.08a3.52,3.52,0,0,1-.86-.22,8.86,8.86,0,0,1-1-.48L60.06,299q-10,15.86-13.89,15.86a5.4,5.4,0,0,1-5.32-5.27q0-3.74,14.11-12.74l4-2.55q-.22-.4-.44-.88T58,292.37q-6.3,1.52-11.64,2.4a53.54,53.54,0,0,1-7.69.88,6.42,6.42,0,0,1-4.31-1.28,4.6,4.6,0,0,1-1.54-3.69,5.53,5.53,0,0,1,1.58-4.13A5.64,5.64,0,0,1,38.57,285a43.38,43.38,0,0,1,6.5,1q5,1,12.83,2.83a8.28,8.28,0,0,1,.35-1.08,6.91,6.91,0,0,1,.48-1q-1.76-1.1-4.92-3.12-13.34-8.39-13.34-12.17a5.2,5.2,0,0,1,1.67-3.71A5.14,5.14,0,0,1,45.88,266q3.69,0,13.1,14.77,1.41,2.24,2.2,3.43a9.39,9.39,0,0,1,1-.46,8.16,8.16,0,0,1,1-.33q-1.63-6.94-2.59-12.2a48,48,0,0,1-1-7.27,6,6,0,0,1,1.47-4.22,4.94,4.94,0,0,1,3.85-1.63,5,5,0,0,1,3.79,1.58,5.88,5.88,0,0,1,1.47,4.17,49.13,49.13,0,0,1-1,7.18q-1,5.34-2.61,12.24a9.37,9.37,0,0,1,1.19.4,5.08,5.08,0,0,1,1,.53L71,280.7q9.34-14.85,13.11-14.85a5,5,0,0,1,3.69,1.65,5.21,5.21,0,0,1,1.63,3.76q0,3.82-13.14,12.08l-5.14,3.21q.44.92.62,1.32T72.06,288.61Z"/><path class="cls-1" d="M71.68,551.15V536.6H68.13v-3.5h3.65v-6.24h3.74v6.24h6.29v3.5H75.57v14.06a5.89,5.89,0,0,0,.62,3.17,2.84,2.84,0,0,0,2.5.91h1.92v3.79H78.49q-3.6,0-5.21-1.85T71.68,551.15Z"/><path class="cls-1" d="M102.35,558.54v-2.78h-.1a7,7,0,0,1-2.74,2.38,10.23,10.23,0,0,1-5,1.13q-4.22,0-6.41-2.06A6.83,6.83,0,0,1,85.89,552a6.44,6.44,0,0,1,1.94-5q1.94-1.8,6.6-3,1.73-.43,2.57-.67t1.94-.65a5.93,5.93,0,0,0,1.58-.79,3.8,3.8,0,0,0,.84-1,2.4,2.4,0,0,0,.36-1.3,3.36,3.36,0,0,0-1.32-2.71,6.25,6.25,0,0,0-4-1.08q-5.09,0-6.19,5l-3.55-1a9,9,0,0,1,3.12-5.45,9.76,9.76,0,0,1,6.48-2.09,10.43,10.43,0,0,1,7,2.18q2.57,2.18,2.57,6.84v17.14Zm-7-11.47a11.74,11.74,0,0,0-4.44,2,3.5,3.5,0,0,0-1.18,2.74q0,4,5,4a8.1,8.1,0,0,0,5.33-1.56,4.79,4.79,0,0,0,1.87-3.82V544h-.1Q101.2,545.44,95.34,547.07Z"/><path class="cls-1" d="M113.49,569.34V533.1h3.74v2.45h.1a8.71,8.71,0,0,1,2.88-2.18,9.56,9.56,0,0,1,4.42-1,10,10,0,0,1,7.92,3.67q3.17,3.67,3.17,9.77t-3.07,9.79a10,10,0,0,1-8,3.65,9.34,9.34,0,0,1-4.32-1,7.57,7.57,0,0,1-2.78-2.16h-.1v13.25Zm3.94-27.22v8.06a5,5,0,0,0,1.87,3.87,6.77,6.77,0,0,0,4.66,1.66,7,7,0,0,0,5.83-2.59q2-2.59,2-7.3a11.47,11.47,0,0,0-2.06-7.27,7,7,0,0,0-5.81-2.62,6.18,6.18,0,0,0-4.73,1.92A6.11,6.11,0,0,0,117.42,542.12Z"/><path class="cls-1" d="M155.1,551.15V536.6h-3.55v-3.5h3.65v-6.24h3.74v6.24h6.29v3.5H159v14.06a5.89,5.89,0,0,0,.62,3.17,2.84,2.84,0,0,0,2.5.91H164v3.79h-2.11q-3.6,0-5.21-1.85T155.1,551.15Z"/><path class="cls-1" d="M180.4,559.26a10.78,10.78,0,0,1-8.3-3.55q-3.27-3.55-3.26-9.89t3.36-9.84a10.8,10.8,0,0,1,8.21-3.6,10.53,10.53,0,0,1,8.09,3.6q3.29,3.6,3.29,9.84t-3.22,9.89A10.53,10.53,0,0,1,180.4,559.26Zm0-3.55a6.64,6.64,0,0,0,5.35-2.62,13.51,13.51,0,0,0,0-14.54,6.62,6.62,0,0,0-5.38-2.62,6.89,6.89,0,0,0-5.52,2.57q-2.16,2.57-2.16,7.32t2.16,7.32A6.89,6.89,0,0,0,180.4,555.71Z"/><path class="cls-1" d="M208.33,549.9l3.7-.72q.72,6.67,7.06,6.67a7.67,7.67,0,0,0,4.54-1.1,3.45,3.45,0,0,0,1.51-2.93,3.25,3.25,0,0,0-1.42-2.88,23.49,23.49,0,0,0-5.93-2.21,18,18,0,0,1-6.62-2.93,5.5,5.5,0,0,1-1.92-4.42,6.38,6.38,0,0,1,2.35-4.92,9.41,9.41,0,0,1,6.48-2.09,10.19,10.19,0,0,1,6.62,2,9.58,9.58,0,0,1,3.26,5.3l-3.41.91a6.22,6.22,0,0,0-6.48-4.85,6.1,6.1,0,0,0-3.84,1.06,3.11,3.11,0,0,0-1.34,2.5,2.55,2.55,0,0,0,1.3,2.35,32,32,0,0,0,6,2.11q4.94,1.39,6.79,3.19a6.65,6.65,0,0,1,1.9,4.87,6.86,6.86,0,0,1-2.42,5.23q-2.42,2.21-7.27,2.21-5,0-7.7-2.62A10.68,10.68,0,0,1,208.33,549.9Z"/><path class="cls-1" d="M236,551.15V536.6h-3.55v-3.5h3.65v-6.24h3.74v6.24h6.29v3.5h-6.24v14.06a5.89,5.89,0,0,0,.62,3.17,2.84,2.84,0,0,0,2.5.91h1.92v3.79H242.8q-3.6,0-5.21-1.85T236,551.15Z"/><path class="cls-1" d="M266.65,558.54v-2.78h-.1a7,7,0,0,1-2.74,2.38,10.22,10.22,0,0,1-5,1.13q-4.22,0-6.41-2.06a6.83,6.83,0,0,1-2.18-5.18,6.44,6.44,0,0,1,1.94-5q1.94-1.8,6.6-3,1.73-.43,2.57-.67t1.94-.65a5.94,5.94,0,0,0,1.58-.79,3.81,3.81,0,0,0,.84-1,2.4,2.4,0,0,0,.36-1.3,3.36,3.36,0,0,0-1.32-2.71,6.25,6.25,0,0,0-4-1.08q-5.09,0-6.19,5l-3.55-1a9,9,0,0,1,3.12-5.45,9.75,9.75,0,0,1,6.48-2.09,10.43,10.43,0,0,1,7,2.18q2.57,2.18,2.57,6.84v17.14Zm-7-11.47a11.74,11.74,0,0,0-4.44,2,3.51,3.51,0,0,0-1.18,2.74q0,4,5,4a8.1,8.1,0,0,0,5.33-1.56,4.79,4.79,0,0,0,1.87-3.82V544h-.1Q265.5,545.44,259.64,547.07Z"/><path class="cls-1" d="M277.79,558.54V533.1h3.74v2.74h.1a5.34,5.34,0,0,1,2.26-2.35,6.23,6.23,0,0,1,3-.82,5.36,5.36,0,0,1,1.13.12q.55.12.84.22l.24.14L288.4,537a4.35,4.35,0,0,0-2-.38,4,4,0,0,0-3.55,1.61,9.33,9.33,0,0,0-1.1,5.16v15.12Z"/><path class="cls-1" d="M296,551.15V536.6h-3.55v-3.5h3.65v-6.24h3.74v6.24h6.29v3.5h-6.24v14.06a5.89,5.89,0,0,0,.62,3.17,2.84,2.84,0,0,0,2.5.91H305v3.79h-2.11q-3.6,0-5.21-1.85T296,551.15Z"/></svg>